<mxfile host="app.diagrams.net" modified="2021-09-22T12:37:03.926Z" agent="5.0 (Windows)" etag="M6AHxvK16O8wvBa8mruv" version="15.2.9" type="github">
  <diagram id="7SA63HAvx1jWozJMohPs" name="Page-1">
    <mxGraphModel dx="1038" dy="564" grid="1" gridSize="10" guides="1" tooltips="1" connect="1" arrows="1" fold="1" page="1" pageScale="1" pageWidth="12000" pageHeight="3000" math="0" shadow="0">
      <root>
        <mxCell id="0" />
        <mxCell id="1" parent="0" />
        <mxCell id="kZ6u3BH4I5gmzjGOUQQB-4" value="" style="edgeStyle=orthogonalEdgeStyle;orthogonalLoop=1;jettySize=auto;html=1;sketch=0;" parent="1" edge="1">
          <mxGeometry relative="1" as="geometry">
            <mxPoint x="520" y="250" as="targetPoint" />
          </mxGeometry>
        </mxCell>
        <mxCell id="kZ6u3BH4I5gmzjGOUQQB-6" value="" style="edgeStyle=orthogonalEdgeStyle;rounded=0;sketch=0;orthogonalLoop=1;jettySize=auto;html=1;" parent="1" edge="1">
          <mxGeometry relative="1" as="geometry">
            <mxPoint x="520" y="310" as="sourcePoint" />
          </mxGeometry>
        </mxCell>
        <mxCell id="kZ6u3BH4I5gmzjGOUQQB-7" value="" style="rounded=1;whiteSpace=wrap;html=1;fillColor=#E6E6E6;strokeColor=none;arcSize=4;" parent="1" vertex="1">
          <mxGeometry x="90" y="40" width="4460" height="240" as="geometry" />
        </mxCell>
        <mxCell id="kZ6u3BH4I5gmzjGOUQQB-9" value="" style="rounded=1;whiteSpace=wrap;html=1;fillColor=#B3B3B3;arcSize=4;" parent="1" vertex="1">
          <mxGeometry x="120" y="50" width="230" height="220" as="geometry" />
        </mxCell>
        <mxCell id="kZ6u3BH4I5gmzjGOUQQB-1" value="&lt;font face=&quot;Times New Roman&quot;&gt;&lt;b&gt;&lt;font style=&quot;font-size: 24px&quot;&gt;&lt;font style=&quot;font-size: 18px&quot;&gt;2017&lt;/font&gt;&lt;/font&gt;&lt;/b&gt;&lt;/font&gt;" style="whiteSpace=wrap;html=1;rounded=1;fillColor=#E6E6E6;strokeColor=none;arcSize=11;" parent="1" vertex="1">
          <mxGeometry x="40" y="40" width="70" height="240" as="geometry" />
        </mxCell>
        <mxCell id="8ZuE6UymOt83okC72A94-3" value="" style="rounded=1;whiteSpace=wrap;html=1;fillColor=none;dashed=1;arcSize=2;" parent="1" vertex="1">
          <mxGeometry x="130" y="60" width="210" height="140" as="geometry" />
        </mxCell>
        <mxCell id="kZ6u3BH4I5gmzjGOUQQB-10" value="&lt;div&gt;&lt;font style=&quot;font-size: 18px&quot; face=&quot;Times New Roman&quot;&gt;Planet [ATVA]&lt;br&gt;&lt;/font&gt;&lt;/div&gt;" style="rounded=1;whiteSpace=wrap;html=1;fillColor=#FFFFFF;strokeColor=none;" parent="1" vertex="1">
          <mxGeometry x="130" y="60" width="210" height="20" as="geometry" />
        </mxCell>
        <mxCell id="kZ6u3BH4I5gmzjGOUQQB-11" value="&lt;div&gt;&lt;font style=&quot;font-size: 18px&quot; face=&quot;Times New Roman&quot;&gt;&quot;Formal Verification of Piece-Wise Linear Feed-Forward Neural Networks.&quot;&lt;/font&gt;&lt;br&gt;&lt;/div&gt;" style="rounded=1;whiteSpace=wrap;html=1;fillColor=none;strokeColor=none;" parent="1" vertex="1">
          <mxGeometry x="130" y="90" width="210" height="100" as="geometry" />
        </mxCell>
        <mxCell id="8ZuE6UymOt83okC72A94-2" value="&lt;div&gt;&lt;font style=&quot;font-size: 18px&quot; face=&quot;Times New Roman&quot;&gt;RÃ¼diger Ehlers&lt;/font&gt;&lt;/div&gt;&lt;div&gt;&lt;font style=&quot;font-size: 18px&quot; face=&quot;Times New Roman&quot;&gt;(University of Bremen)&lt;br&gt;&lt;/font&gt;&lt;/div&gt;" style="rounded=1;whiteSpace=wrap;html=1;fillColor=none;strokeColor=none;" parent="1" vertex="1">
          <mxGeometry x="130" y="210" width="210" height="50" as="geometry" />
        </mxCell>
        <mxCell id="8ZuE6UymOt83okC72A94-14" value="" style="rounded=1;whiteSpace=wrap;html=1;fillColor=#E6E6E6;strokeColor=none;arcSize=4;" parent="1" vertex="1">
          <mxGeometry x="90" y="320" width="4450" height="240" as="geometry" />
        </mxCell>
        <mxCell id="8ZuE6UymOt83okC72A94-15" value="&lt;font face=&quot;Times New Roman&quot;&gt;&lt;b&gt;&lt;font style=&quot;font-size: 24px&quot;&gt;&lt;font style=&quot;font-size: 18px&quot;&gt;2018&lt;/font&gt;&lt;/font&gt;&lt;/b&gt;&lt;/font&gt;" style="whiteSpace=wrap;html=1;rounded=1;fillColor=#E6E6E6;strokeColor=none;arcSize=11;" parent="1" vertex="1">
          <mxGeometry x="40" y="320" width="70" height="240" as="geometry" />
        </mxCell>
        <mxCell id="8ZuE6UymOt83okC72A94-16" value="" style="rounded=1;whiteSpace=wrap;html=1;fillColor=#E6E6E6;strokeColor=none;arcSize=4;" parent="1" vertex="1">
          <mxGeometry x="90" y="600" width="4460" height="240" as="geometry" />
        </mxCell>
        <mxCell id="8ZuE6UymOt83okC72A94-17" value="&lt;font face=&quot;Times New Roman&quot;&gt;&lt;b&gt;&lt;font style=&quot;font-size: 24px&quot;&gt;&lt;font style=&quot;font-size: 18px&quot;&gt;2019&lt;/font&gt;&lt;/font&gt;&lt;/b&gt;&lt;/font&gt;" style="whiteSpace=wrap;html=1;rounded=1;fillColor=#E6E6E6;strokeColor=none;arcSize=11;" parent="1" vertex="1">
          <mxGeometry x="40" y="600" width="70" height="240" as="geometry" />
        </mxCell>
        <mxCell id="8ZuE6UymOt83okC72A94-18" value="" style="rounded=1;whiteSpace=wrap;html=1;fillColor=#E6E6E6;strokeColor=none;arcSize=4;" parent="1" vertex="1">
          <mxGeometry x="90" y="880" width="4440" height="240" as="geometry" />
        </mxCell>
        <mxCell id="8ZuE6UymOt83okC72A94-19" value="&lt;font face=&quot;Times New Roman&quot;&gt;&lt;b&gt;&lt;font style=&quot;font-size: 24px&quot;&gt;&lt;font style=&quot;font-size: 18px&quot;&gt;2020&lt;/font&gt;&lt;/font&gt;&lt;/b&gt;&lt;/font&gt;" style="whiteSpace=wrap;html=1;rounded=1;fillColor=#E6E6E6;strokeColor=none;arcSize=11;" parent="1" vertex="1">
          <mxGeometry x="40" y="880" width="70" height="240" as="geometry" />
        </mxCell>
        <mxCell id="8ZuE6UymOt83okC72A94-20" value="" style="rounded=1;whiteSpace=wrap;html=1;fillColor=#E6E6E6;strokeColor=none;arcSize=4;" parent="1" vertex="1">
          <mxGeometry x="90" y="1160" width="4440" height="240" as="geometry" />
        </mxCell>
        <mxCell id="8ZuE6UymOt83okC72A94-21" value="&lt;font face=&quot;Times New Roman&quot;&gt;&lt;b&gt;&lt;font style=&quot;font-size: 24px&quot;&gt;&lt;font style=&quot;font-size: 18px&quot;&gt;2021&lt;/font&gt;&lt;/font&gt;&lt;/b&gt;&lt;/font&gt;" style="whiteSpace=wrap;html=1;rounded=1;fillColor=#E6E6E6;strokeColor=none;arcSize=11;" parent="1" vertex="1">
          <mxGeometry x="40" y="1160" width="70" height="240" as="geometry" />
        </mxCell>
        <mxCell id="8ZuE6UymOt83okC72A94-22" value="" style="rounded=1;whiteSpace=wrap;html=1;fillColor=#B3B3B3;arcSize=4;" parent="1" vertex="1">
          <mxGeometry x="120" y="330" width="230" height="220" as="geometry" />
        </mxCell>
        <mxCell id="8ZuE6UymOt83okC72A94-23" value="" style="rounded=1;whiteSpace=wrap;html=1;fillColor=none;dashed=1;arcSize=2;" parent="1" vertex="1">
          <mxGeometry x="130" y="340" width="210" height="140" as="geometry" />
        </mxCell>
        <mxCell id="8ZuE6UymOt83okC72A94-24" value="&lt;div&gt;&lt;font style=&quot;font-size: 18px&quot; face=&quot;Times New Roman&quot;&gt;BaB [NeurIPS]&lt;br&gt;&lt;/font&gt;&lt;/div&gt;" style="rounded=1;whiteSpace=wrap;html=1;fillColor=#FFFFFF;strokeColor=none;" parent="1" vertex="1">
          <mxGeometry x="130" y="340" width="210" height="20" as="geometry" />
        </mxCell>
        <mxCell id="8ZuE6UymOt83okC72A94-25" value="&lt;div&gt;&lt;font style=&quot;font-size: 18px&quot; face=&quot;Times New Roman&quot;&gt;&quot;A Unified View of Piecewise Linear Neural Network Verification.&quot;&lt;/font&gt;&lt;br&gt;&lt;/div&gt;" style="rounded=1;whiteSpace=wrap;html=1;fillColor=none;strokeColor=none;" parent="1" vertex="1">
          <mxGeometry x="130" y="370" width="210" height="100" as="geometry" />
        </mxCell>
        <mxCell id="8ZuE6UymOt83okC72A94-26" value="&lt;div&gt;&lt;font style=&quot;font-size: 18px&quot; face=&quot;Times New Roman&quot;&gt;Rudy Bunel et al.&lt;/font&gt;&lt;/div&gt;&lt;div&gt;&lt;font style=&quot;font-size: 18px&quot; face=&quot;Times New Roman&quot;&gt;(University of Oxford)&lt;br&gt;&lt;/font&gt;&lt;/div&gt;" style="rounded=1;whiteSpace=wrap;html=1;fillColor=none;strokeColor=none;" parent="1" vertex="1">
          <mxGeometry x="130" y="490" width="210" height="50" as="geometry" />
        </mxCell>
        <mxCell id="8ZuE6UymOt83okC72A94-27" value="" style="rounded=1;whiteSpace=wrap;html=1;fillColor=#B3B3B3;arcSize=4;" parent="1" vertex="1">
          <mxGeometry x="120" y="610" width="230" height="220" as="geometry" />
        </mxCell>
        <mxCell id="8ZuE6UymOt83okC72A94-28" value="" style="rounded=1;whiteSpace=wrap;html=1;fillColor=none;dashed=1;arcSize=2;" parent="1" vertex="1">
          <mxGeometry x="130" y="620" width="210" height="140" as="geometry" />
        </mxCell>
        <mxCell id="8ZuE6UymOt83okC72A94-29" value="&lt;div&gt;&lt;font style=&quot;font-size: 18px&quot; face=&quot;Times New Roman&quot;&gt;BaBSR&lt;br&gt;&lt;/font&gt;&lt;/div&gt;" style="rounded=1;whiteSpace=wrap;html=1;fillColor=#FFFFFF;strokeColor=none;" parent="1" vertex="1">
          <mxGeometry x="130" y="620" width="210" height="20" as="geometry" />
        </mxCell>
        <mxCell id="8ZuE6UymOt83okC72A94-30" value="&lt;div&gt;&lt;font style=&quot;font-size: 18px&quot; face=&quot;Times New Roman&quot;&gt;&quot;Branch and Bound for Piecewise Linear Neural Network Verification.&quot;&lt;/font&gt;&lt;br&gt;&lt;/div&gt;" style="rounded=1;whiteSpace=wrap;html=1;fillColor=none;strokeColor=none;" parent="1" vertex="1">
          <mxGeometry x="130" y="650" width="210" height="100" as="geometry" />
        </mxCell>
        <mxCell id="8ZuE6UymOt83okC72A94-31" value="&lt;div&gt;&lt;font style=&quot;font-size: 18px&quot; face=&quot;Times New Roman&quot;&gt;Rudy Bunel et al.&lt;/font&gt;&lt;/div&gt;&lt;div&gt;&lt;font style=&quot;font-size: 18px&quot; face=&quot;Times New Roman&quot;&gt;(University of Oxford)&lt;br&gt;&lt;/font&gt;&lt;/div&gt;" style="rounded=1;whiteSpace=wrap;html=1;fillColor=none;strokeColor=none;" parent="1" vertex="1">
          <mxGeometry x="130" y="770" width="210" height="50" as="geometry" />
        </mxCell>
        <mxCell id="8ZuE6UymOt83okC72A94-32" style="edgeStyle=orthogonalEdgeStyle;rounded=1;orthogonalLoop=1;jettySize=auto;html=1;exitX=0.5;exitY=1;exitDx=0;exitDy=0;entryX=0.5;entryY=0;entryDx=0;entryDy=0;strokeColor=#4D4D4D;strokeWidth=3;" parent="1" source="kZ6u3BH4I5gmzjGOUQQB-9" target="8ZuE6UymOt83okC72A94-22" edge="1">
          <mxGeometry relative="1" as="geometry" />
        </mxCell>
        <mxCell id="8ZuE6UymOt83okC72A94-33" style="edgeStyle=orthogonalEdgeStyle;rounded=1;orthogonalLoop=1;jettySize=auto;html=1;exitX=0.5;exitY=1;exitDx=0;exitDy=0;entryX=0.5;entryY=0;entryDx=0;entryDy=0;strokeColor=#4D4D4D;strokeWidth=3;" parent="1" source="8ZuE6UymOt83okC72A94-22" target="8ZuE6UymOt83okC72A94-27" edge="1">
          <mxGeometry relative="1" as="geometry">
            <mxPoint x="245" y="280" as="sourcePoint" />
            <mxPoint x="245" y="340" as="targetPoint" />
          </mxGeometry>
        </mxCell>
        <mxCell id="8ZuE6UymOt83okC72A94-34" value="" style="rounded=1;whiteSpace=wrap;html=1;fillColor=#B3B3B3;arcSize=4;" parent="1" vertex="1">
          <mxGeometry x="400" y="50" width="230" height="220" as="geometry" />
        </mxCell>
        <mxCell id="8ZuE6UymOt83okC72A94-35" value="" style="rounded=1;whiteSpace=wrap;html=1;fillColor=none;dashed=1;arcSize=2;" parent="1" vertex="1">
          <mxGeometry x="410" y="60" width="210" height="140" as="geometry" />
        </mxCell>
        <mxCell id="8ZuE6UymOt83okC72A94-36" value="&lt;div&gt;&lt;font style=&quot;font-size: 18px&quot; face=&quot;Times New Roman&quot;&gt;&lt;font style=&quot;font-size: 18px&quot; face=&quot;Times New Roman&quot;&gt;Reluplex&lt;/font&gt; [CAV]&lt;br&gt;&lt;/font&gt;&lt;/div&gt;" style="rounded=1;whiteSpace=wrap;html=1;fillColor=#FFFFFF;strokeColor=none;" parent="1" vertex="1">
          <mxGeometry x="410" y="60" width="210" height="20" as="geometry" />
        </mxCell>
        <mxCell id="8ZuE6UymOt83okC72A94-37" value="&lt;div&gt;&lt;font style=&quot;font-size: 18px&quot; face=&quot;Times New Roman&quot;&gt;&quot;Reluplex: An Efficient SMT Solver for Verifying Deep Neural Networks.&quot;&lt;/font&gt;&lt;br&gt;&lt;/div&gt;" style="rounded=1;whiteSpace=wrap;html=1;fillColor=none;strokeColor=none;" parent="1" vertex="1">
          <mxGeometry x="410" y="90" width="210" height="100" as="geometry" />
        </mxCell>
        <mxCell id="8ZuE6UymOt83okC72A94-38" value="&lt;div&gt;&lt;font style=&quot;font-size: 18px&quot; face=&quot;Times New Roman&quot;&gt;Guy Katz et al.&lt;br&gt;(Stanford University)&lt;br&gt;&lt;/font&gt;&lt;/div&gt;" style="rounded=1;whiteSpace=wrap;html=1;fillColor=none;strokeColor=none;" parent="1" vertex="1">
          <mxGeometry x="410" y="210" width="210" height="50" as="geometry" />
        </mxCell>
        <mxCell id="8ZuE6UymOt83okC72A94-39" value="" style="rounded=1;whiteSpace=wrap;html=1;fillColor=#B3B3B3;arcSize=4;" parent="1" vertex="1">
          <mxGeometry x="680" y="50" width="230" height="220" as="geometry" />
        </mxCell>
        <mxCell id="8ZuE6UymOt83okC72A94-40" value="" style="rounded=1;whiteSpace=wrap;html=1;fillColor=none;dashed=1;arcSize=2;" parent="1" vertex="1">
          <mxGeometry x="690" y="60" width="210" height="140" as="geometry" />
        </mxCell>
        <mxCell id="8ZuE6UymOt83okC72A94-41" value="&lt;div&gt;&lt;font style=&quot;font-size: 18px&quot; face=&quot;Times New Roman&quot;&gt;Sherlock&lt;br&gt;&lt;/font&gt;&lt;/div&gt;" style="rounded=1;whiteSpace=wrap;html=1;fillColor=#FFFFFF;strokeColor=none;" parent="1" vertex="1">
          <mxGeometry x="690" y="60" width="210" height="20" as="geometry" />
        </mxCell>
        <mxCell id="8ZuE6UymOt83okC72A94-42" value="&lt;div&gt;&lt;font style=&quot;font-size: 18px&quot; face=&quot;Times New Roman&quot;&gt;&quot;Output Range Analysis for Deep Neural Networks.&quot;&lt;/font&gt;&lt;br&gt;&lt;/div&gt;" style="rounded=1;whiteSpace=wrap;html=1;fillColor=none;strokeColor=none;" parent="1" vertex="1">
          <mxGeometry x="690" y="90" width="210" height="100" as="geometry" />
        </mxCell>
        <mxCell id="8ZuE6UymOt83okC72A94-43" value="&lt;div&gt;&lt;font style=&quot;font-size: 18px&quot; face=&quot;Times New Roman&quot;&gt;Souradeep Dutta et al.&lt;/font&gt;&lt;/div&gt;&lt;div&gt;&lt;font style=&quot;font-size: 18px&quot; face=&quot;Times New Roman&quot;&gt;(University of Colorado)&lt;br&gt;&lt;/font&gt;&lt;/div&gt;" style="rounded=1;whiteSpace=wrap;html=1;fillColor=none;strokeColor=none;" parent="1" vertex="1">
          <mxGeometry x="690" y="210" width="210" height="50" as="geometry" />
        </mxCell>
        <mxCell id="8ZuE6UymOt83okC72A94-44" value="" style="rounded=1;whiteSpace=wrap;html=1;fillColor=#B3B3B3;arcSize=4;" parent="1" vertex="1">
          <mxGeometry x="960" y="50" width="230" height="220" as="geometry" />
        </mxCell>
        <mxCell id="8ZuE6UymOt83okC72A94-45" value="" style="rounded=1;whiteSpace=wrap;html=1;fillColor=none;dashed=1;arcSize=2;" parent="1" vertex="1">
          <mxGeometry x="970" y="60" width="210" height="140" as="geometry" />
        </mxCell>
        <mxCell id="8ZuE6UymOt83okC72A94-46" value="&lt;div&gt;&lt;font style=&quot;font-size: 18px&quot; face=&quot;Times New Roman&quot;&gt;NSVerify / Reachability&lt;br&gt;&lt;/font&gt;&lt;/div&gt;" style="rounded=1;whiteSpace=wrap;html=1;fillColor=#FFFFFF;strokeColor=none;" parent="1" vertex="1">
          <mxGeometry x="970" y="60" width="210" height="20" as="geometry" />
        </mxCell>
        <mxCell id="8ZuE6UymOt83okC72A94-47" value="&lt;div&gt;&lt;font style=&quot;font-size: 18px&quot; face=&quot;Times New Roman&quot;&gt;&quot;An approach to reachability analysis for feed-forward ReLU neural networks.&quot;&lt;/font&gt;&lt;br&gt;&lt;/div&gt;" style="rounded=1;whiteSpace=wrap;html=1;fillColor=none;strokeColor=none;" parent="1" vertex="1">
          <mxGeometry x="970" y="90" width="210" height="100" as="geometry" />
        </mxCell>
        <mxCell id="8ZuE6UymOt83okC72A94-48" value="&lt;div&gt;&lt;font style=&quot;font-size: 18px&quot; face=&quot;Times New Roman&quot;&gt;A. Lomuscio &amp;amp; L. Maganti&lt;/font&gt;&lt;/div&gt;&lt;div&gt;&lt;font style=&quot;font-size: 18px&quot; face=&quot;Times New Roman&quot;&gt;(Imperial College London)&lt;br&gt;&lt;/font&gt;&lt;/div&gt;" style="rounded=1;whiteSpace=wrap;html=1;fillColor=none;strokeColor=none;" parent="1" vertex="1">
          <mxGeometry x="970" y="210" width="210" height="50" as="geometry" />
        </mxCell>
        <mxCell id="8ZuE6UymOt83okC72A94-49" value="" style="rounded=1;whiteSpace=wrap;html=1;fillColor=#B3B3B3;arcSize=4;" parent="1" vertex="1">
          <mxGeometry x="1240" y="50" width="230" height="220" as="geometry" />
        </mxCell>
        <mxCell id="8ZuE6UymOt83okC72A94-50" value="" style="rounded=1;whiteSpace=wrap;html=1;fillColor=none;dashed=1;arcSize=2;" parent="1" vertex="1">
          <mxGeometry x="1250" y="60" width="210" height="140" as="geometry" />
        </mxCell>
        <mxCell id="8ZuE6UymOt83okC72A94-51" value="&lt;div&gt;&lt;font style=&quot;font-size: 18px&quot; face=&quot;Times New Roman&quot;&gt;ChengMIP [ATVA]&lt;br&gt;&lt;/font&gt;&lt;/div&gt;" style="rounded=1;whiteSpace=wrap;html=1;fillColor=#FFFFFF;strokeColor=none;" parent="1" vertex="1">
          <mxGeometry x="1250" y="60" width="210" height="20" as="geometry" />
        </mxCell>
        <mxCell id="8ZuE6UymOt83okC72A94-52" value="&lt;div&gt;&lt;font style=&quot;font-size: 18px&quot; face=&quot;Times New Roman&quot;&gt;&quot;Maximum Resilience of Artificial Neural Networks.&quot;&lt;/font&gt;&lt;br&gt;&lt;/div&gt;" style="rounded=1;whiteSpace=wrap;html=1;fillColor=none;strokeColor=none;" parent="1" vertex="1">
          <mxGeometry x="1250" y="90" width="210" height="100" as="geometry" />
        </mxCell>
        <mxCell id="8ZuE6UymOt83okC72A94-53" value="&lt;div&gt;&lt;font style=&quot;font-size: 18px&quot; face=&quot;Times New Roman&quot;&gt;Chih-Hong Cheng et al.&lt;/font&gt;&lt;/div&gt;&lt;div&gt;&lt;font style=&quot;font-size: 18px&quot; face=&quot;Times New Roman&quot;&gt;(Technical University of Munich)&lt;br&gt;&lt;/font&gt;&lt;/div&gt;" style="rounded=1;whiteSpace=wrap;html=1;fillColor=none;strokeColor=none;" parent="1" vertex="1">
          <mxGeometry x="1250" y="210" width="210" height="50" as="geometry" />
        </mxCell>
        <mxCell id="8ZuE6UymOt83okC72A94-59" value="" style="rounded=1;whiteSpace=wrap;html=1;fillColor=#B3B3B3;arcSize=4;" parent="1" vertex="1">
          <mxGeometry x="960" y="610" width="230" height="220" as="geometry" />
        </mxCell>
        <mxCell id="8ZuE6UymOt83okC72A94-60" value="" style="rounded=1;whiteSpace=wrap;html=1;fillColor=none;dashed=1;arcSize=2;" parent="1" vertex="1">
          <mxGeometry x="970" y="620" width="210" height="140" as="geometry" />
        </mxCell>
        <mxCell id="8ZuE6UymOt83okC72A94-61" value="&lt;div&gt;&lt;font style=&quot;font-size: 18px&quot; face=&quot;Times New Roman&quot;&gt;Bounded MILP [ICLR]&lt;br&gt;&lt;/font&gt;&lt;/div&gt;" style="rounded=1;whiteSpace=wrap;html=1;fillColor=#FFFFFF;strokeColor=none;" parent="1" vertex="1">
          <mxGeometry x="970" y="620" width="210" height="20" as="geometry" />
        </mxCell>
        <mxCell id="8ZuE6UymOt83okC72A94-62" value="&lt;div&gt;&lt;font style=&quot;font-size: 18px&quot; face=&quot;Times New Roman&quot;&gt;&quot;Evaluating Robustness of Neural Networks with Mixed Integer Programming.&quot;&lt;/font&gt;&lt;br&gt;&lt;/div&gt;" style="rounded=1;whiteSpace=wrap;html=1;fillColor=none;strokeColor=none;" parent="1" vertex="1">
          <mxGeometry x="970" y="650" width="210" height="100" as="geometry" />
        </mxCell>
        <mxCell id="8ZuE6UymOt83okC72A94-63" value="&lt;div&gt;&lt;font style=&quot;font-size: 18px&quot; face=&quot;Times New Roman&quot;&gt;Vincent Tjeng et al.&lt;/font&gt;&lt;/div&gt;&lt;div&gt;&lt;font style=&quot;font-size: 18px&quot; face=&quot;Times New Roman&quot;&gt;(MIT)&lt;br&gt;&lt;/font&gt;&lt;/div&gt;" style="rounded=1;whiteSpace=wrap;html=1;fillColor=none;strokeColor=none;" parent="1" vertex="1">
          <mxGeometry x="970" y="770" width="210" height="50" as="geometry" />
        </mxCell>
        <mxCell id="8ZuE6UymOt83okC72A94-64" style="edgeStyle=orthogonalEdgeStyle;rounded=1;orthogonalLoop=1;jettySize=auto;html=1;strokeColor=#4D4D4D;strokeWidth=3;exitX=0.5;exitY=1;exitDx=0;exitDy=0;entryX=0.5;entryY=0;entryDx=0;entryDy=0;" parent="1" source="8ZuE6UymOt83okC72A94-44" target="8ZuE6UymOt83okC72A94-59" edge="1">
          <mxGeometry relative="1" as="geometry">
            <mxPoint x="1006" y="290" as="sourcePoint" />
            <mxPoint x="245" y="340" as="targetPoint" />
          </mxGeometry>
        </mxCell>
        <mxCell id="8ZuE6UymOt83okC72A94-65" style="edgeStyle=orthogonalEdgeStyle;rounded=1;orthogonalLoop=1;jettySize=auto;html=1;exitX=1;exitY=0.5;exitDx=0;exitDy=0;entryX=0;entryY=0.5;entryDx=0;entryDy=0;strokeColor=#4D4D4D;strokeWidth=3;endArrow=none;endFill=0;dashed=1;dashPattern=1 2;" parent="1" source="8ZuE6UymOt83okC72A94-39" target="8ZuE6UymOt83okC72A94-44" edge="1">
          <mxGeometry relative="1" as="geometry">
            <mxPoint x="245" y="280" as="sourcePoint" />
            <mxPoint x="245" y="340" as="targetPoint" />
          </mxGeometry>
        </mxCell>
        <mxCell id="8ZuE6UymOt83okC72A94-66" style="edgeStyle=orthogonalEdgeStyle;rounded=1;orthogonalLoop=1;jettySize=auto;html=1;exitX=1;exitY=0.5;exitDx=0;exitDy=0;entryX=0;entryY=0.5;entryDx=0;entryDy=0;strokeColor=#4D4D4D;strokeWidth=3;endArrow=none;endFill=0;dashed=1;dashPattern=1 2;" parent="1" source="8ZuE6UymOt83okC72A94-44" target="8ZuE6UymOt83okC72A94-49" edge="1">
          <mxGeometry relative="1" as="geometry">
            <mxPoint x="920" y="170" as="sourcePoint" />
            <mxPoint x="970" y="170" as="targetPoint" />
          </mxGeometry>
        </mxCell>
        <mxCell id="8ZuE6UymOt83okC72A94-67" style="edgeStyle=orthogonalEdgeStyle;rounded=1;orthogonalLoop=1;jettySize=auto;html=1;exitX=1;exitY=0.5;exitDx=0;exitDy=0;strokeColor=#4D4D4D;strokeWidth=3;endArrow=none;endFill=0;dashed=1;dashPattern=1 2;entryX=0;entryY=0.5;entryDx=0;entryDy=0;" parent="1" source="kZ6u3BH4I5gmzjGOUQQB-9" target="8ZuE6UymOt83okC72A94-34" edge="1">
          <mxGeometry relative="1" as="geometry">
            <mxPoint x="930" y="180" as="sourcePoint" />
            <mxPoint x="590" y="290" as="targetPoint" />
          </mxGeometry>
        </mxCell>
        <mxCell id="8ZuE6UymOt83okC72A94-68" value="" style="rounded=1;whiteSpace=wrap;html=1;fillColor=#B3B3B3;arcSize=4;" parent="1" vertex="1">
          <mxGeometry x="1520" y="50" width="230" height="220" as="geometry" />
        </mxCell>
        <mxCell id="8ZuE6UymOt83okC72A94-69" value="" style="rounded=1;whiteSpace=wrap;html=1;fillColor=none;dashed=1;arcSize=2;" parent="1" vertex="1">
          <mxGeometry x="1530" y="60" width="210" height="140" as="geometry" />
        </mxCell>
        <mxCell id="8ZuE6UymOt83okC72A94-70" value="&lt;div&gt;&lt;font style=&quot;font-size: 18px&quot; face=&quot;Times New Roman&quot;&gt;DLV [CAV]&lt;br&gt;&lt;/font&gt;&lt;/div&gt;" style="rounded=1;whiteSpace=wrap;html=1;fillColor=#FFFFFF;strokeColor=none;" parent="1" vertex="1">
          <mxGeometry x="1530" y="60" width="210" height="20" as="geometry" />
        </mxCell>
        <mxCell id="8ZuE6UymOt83okC72A94-71" value="&lt;div&gt;&lt;font style=&quot;font-size: 18px&quot; face=&quot;Times New Roman&quot;&gt;&quot;Safety Verification of Deep Neural Networks.&quot;&lt;/font&gt;&lt;br&gt;&lt;/div&gt;" style="rounded=1;whiteSpace=wrap;html=1;fillColor=none;strokeColor=none;" parent="1" vertex="1">
          <mxGeometry x="1530" y="90" width="210" height="100" as="geometry" />
        </mxCell>
        <mxCell id="8ZuE6UymOt83okC72A94-72" value="&lt;div&gt;&lt;font style=&quot;font-size: 18px&quot; face=&quot;Times New Roman&quot;&gt;Xiaowei Huang et al.&lt;/font&gt;&lt;/div&gt;&lt;div&gt;&lt;font style=&quot;font-size: 18px&quot; face=&quot;Times New Roman&quot;&gt;(University of Oxford)&lt;br&gt;&lt;/font&gt;&lt;/div&gt;" style="rounded=1;whiteSpace=wrap;html=1;fillColor=none;strokeColor=none;" parent="1" vertex="1">
          <mxGeometry x="1530" y="210" width="210" height="50" as="geometry" />
        </mxCell>
        <mxCell id="8ZuE6UymOt83okC72A94-73" value="" style="rounded=1;whiteSpace=wrap;html=1;fillColor=#B3B3B3;arcSize=4;" parent="1" vertex="1">
          <mxGeometry x="1520" y="610" width="230" height="220" as="geometry" />
        </mxCell>
        <mxCell id="8ZuE6UymOt83okC72A94-74" value="" style="rounded=1;whiteSpace=wrap;html=1;fillColor=none;dashed=1;arcSize=2;" parent="1" vertex="1">
          <mxGeometry x="1530" y="620" width="210" height="140" as="geometry" />
        </mxCell>
        <mxCell id="8ZuE6UymOt83okC72A94-75" value="&lt;div&gt;&lt;font style=&quot;font-size: 18px&quot; face=&quot;Times New Roman&quot;&gt;GeoCert [&lt;/font&gt;&lt;font style=&quot;font-size: 18px&quot; face=&quot;Times New Roman&quot;&gt;&lt;font style=&quot;font-size: 18px&quot; face=&quot;Times New Roman&quot;&gt;NeurIPS&lt;/font&gt;]&lt;br&gt;&lt;/font&gt;&lt;/div&gt;" style="rounded=1;whiteSpace=wrap;html=1;fillColor=#FFFFFF;strokeColor=none;" parent="1" vertex="1">
          <mxGeometry x="1530" y="620" width="210" height="20" as="geometry" />
        </mxCell>
        <mxCell id="8ZuE6UymOt83okC72A94-76" value="&lt;div&gt;&lt;font style=&quot;font-size: 18px&quot; face=&quot;Times New Roman&quot;&gt;&quot;Provable Certificates for Adversarial Examples: Fitting a Ball in the Union of Polytopes.&quot;&lt;/font&gt;&lt;br&gt;&lt;/div&gt;" style="rounded=1;whiteSpace=wrap;html=1;fillColor=none;strokeColor=none;" parent="1" vertex="1">
          <mxGeometry x="1530" y="650" width="210" height="100" as="geometry" />
        </mxCell>
        <mxCell id="8ZuE6UymOt83okC72A94-77" value="&lt;div&gt;&lt;font style=&quot;font-size: 18px&quot; face=&quot;Times New Roman&quot;&gt;Matt Jordan et al.&lt;/font&gt;&lt;/div&gt;&lt;div&gt;&lt;font style=&quot;font-size: 18px&quot; face=&quot;Times New Roman&quot;&gt;(University of Texas at Austin)&lt;br&gt;&lt;/font&gt;&lt;/div&gt;" style="rounded=1;whiteSpace=wrap;html=1;fillColor=none;strokeColor=none;" parent="1" vertex="1">
          <mxGeometry x="1530" y="770" width="210" height="50" as="geometry" />
        </mxCell>
        <mxCell id="8ZuE6UymOt83okC72A94-78" value="" style="rounded=1;whiteSpace=wrap;html=1;fillColor=#B3B3B3;arcSize=4;" parent="1" vertex="1">
          <mxGeometry x="1800" y="330" width="230" height="220" as="geometry" />
        </mxCell>
        <mxCell id="8ZuE6UymOt83okC72A94-79" value="" style="rounded=1;whiteSpace=wrap;html=1;fillColor=none;dashed=1;arcSize=2;" parent="1" vertex="1">
          <mxGeometry x="1810" y="340" width="210" height="140" as="geometry" />
        </mxCell>
        <mxCell id="8ZuE6UymOt83okC72A94-80" value="&lt;div&gt;&lt;font style=&quot;font-size: 18px&quot; face=&quot;Times New Roman&quot;&gt;LP-full [ICML]&lt;br&gt;&lt;/font&gt;&lt;/div&gt;" style="rounded=1;whiteSpace=wrap;html=1;fillColor=#FFFFFF;strokeColor=none;" parent="1" vertex="1">
          <mxGeometry x="1810" y="340" width="210" height="20" as="geometry" />
        </mxCell>
        <mxCell id="8ZuE6UymOt83okC72A94-81" value="&lt;div&gt;&lt;font style=&quot;font-size: 18px&quot; face=&quot;Times New Roman&quot;&gt;&quot;Towards Fast Computation of Certified Robustness for ReLU Networks.&quot;&lt;/font&gt;&lt;br&gt;&lt;/div&gt;" style="rounded=1;whiteSpace=wrap;html=1;fillColor=none;strokeColor=none;" parent="1" vertex="1">
          <mxGeometry x="1810" y="370" width="210" height="100" as="geometry" />
        </mxCell>
        <mxCell id="8ZuE6UymOt83okC72A94-82" value="&lt;div&gt;&lt;font style=&quot;font-size: 18px&quot; face=&quot;Times New Roman&quot;&gt;Lily Weng et al.&lt;/font&gt;&lt;/div&gt;&lt;div&gt;&lt;font style=&quot;font-size: 18px&quot; face=&quot;Times New Roman&quot;&gt;(MIT)&lt;br&gt;&lt;/font&gt;&lt;/div&gt;" style="rounded=1;whiteSpace=wrap;html=1;fillColor=none;strokeColor=none;" parent="1" vertex="1">
          <mxGeometry x="1810" y="490" width="210" height="50" as="geometry" />
        </mxCell>
        <mxCell id="8ZuE6UymOt83okC72A94-87" value="" style="rounded=1;whiteSpace=wrap;html=1;fillColor=#B3B3B3;arcSize=4;" parent="1" vertex="1">
          <mxGeometry x="1940" y="610" width="230" height="220" as="geometry" />
        </mxCell>
        <mxCell id="8ZuE6UymOt83okC72A94-88" value="" style="rounded=1;whiteSpace=wrap;html=1;fillColor=none;dashed=1;arcSize=2;" parent="1" vertex="1">
          <mxGeometry x="1950" y="620" width="210" height="140" as="geometry" />
        </mxCell>
        <mxCell id="8ZuE6UymOt83okC72A94-89" value="&lt;div&gt;&lt;font style=&quot;font-size: 18px&quot; face=&quot;Times New Roman&quot;&gt;[&lt;/font&gt;&lt;font style=&quot;font-size: 18px&quot; face=&quot;Times New Roman&quot;&gt;&lt;font style=&quot;font-size: 18px&quot; face=&quot;Times New Roman&quot;&gt;&lt;font style=&quot;font-size: 18px&quot; face=&quot;Times New Roman&quot;&gt;NeurIPS&lt;/font&gt;&lt;/font&gt;]&lt;br&gt;&lt;/font&gt;&lt;/div&gt;" style="rounded=1;whiteSpace=wrap;html=1;fillColor=#FFFFFF;strokeColor=none;" parent="1" vertex="1">
          <mxGeometry x="1950" y="620" width="210" height="20" as="geometry" />
        </mxCell>
        <mxCell id="8ZuE6UymOt83okC72A94-90" value="&lt;div&gt;&lt;font style=&quot;font-size: 18px&quot; face=&quot;Times New Roman&quot;&gt;&quot;A Convex Relaxation Barrier to Tight Robustness Verification of Neural Networks.&quot;&lt;/font&gt;&lt;br&gt;&lt;/div&gt;" style="rounded=1;whiteSpace=wrap;html=1;fillColor=none;strokeColor=none;" parent="1" vertex="1">
          <mxGeometry x="1950" y="650" width="210" height="100" as="geometry" />
        </mxCell>
        <mxCell id="8ZuE6UymOt83okC72A94-91" value="&lt;div&gt;&lt;font style=&quot;font-size: 18px&quot; face=&quot;Times New Roman&quot;&gt;Hadi Salman et al.&lt;/font&gt;&lt;/div&gt;&lt;div&gt;&lt;font style=&quot;font-size: 18px&quot; face=&quot;Times New Roman&quot;&gt;(Microsoft Research AI)&lt;br&gt;&lt;/font&gt;&lt;/div&gt;" style="rounded=1;whiteSpace=wrap;html=1;fillColor=none;strokeColor=none;" parent="1" vertex="1">
          <mxGeometry x="1950" y="770" width="210" height="50" as="geometry" />
        </mxCell>
        <mxCell id="8ZuE6UymOt83okC72A94-92" style="edgeStyle=orthogonalEdgeStyle;rounded=1;orthogonalLoop=1;jettySize=auto;html=1;strokeColor=#4D4D4D;strokeWidth=3;exitX=1;exitY=0.5;exitDx=0;exitDy=0;entryX=0.5;entryY=0;entryDx=0;entryDy=0;dashed=1;" parent="1" source="8ZuE6UymOt83okC72A94-78" target="8ZuE6UymOt83okC72A94-87" edge="1">
          <mxGeometry relative="1" as="geometry">
            <mxPoint x="930" y="580" as="sourcePoint" />
            <mxPoint x="245" y="620" as="targetPoint" />
          </mxGeometry>
        </mxCell>
        <mxCell id="8ZuE6UymOt83okC72A94-93" value="" style="rounded=1;whiteSpace=wrap;html=1;fillColor=#B3B3B3;arcSize=4;" parent="1" vertex="1">
          <mxGeometry x="1800" y="890" width="230" height="220" as="geometry" />
        </mxCell>
        <mxCell id="8ZuE6UymOt83okC72A94-94" value="" style="rounded=1;whiteSpace=wrap;html=1;fillColor=none;dashed=1;arcSize=2;" parent="1" vertex="1">
          <mxGeometry x="1810" y="900" width="210" height="140" as="geometry" />
        </mxCell>
        <mxCell id="8ZuE6UymOt83okC72A94-95" value="&lt;div&gt;&lt;font style=&quot;font-size: 18px&quot; face=&quot;Times New Roman&quot;&gt;C2V [&lt;/font&gt;&lt;font style=&quot;font-size: 18px&quot; face=&quot;Times New Roman&quot;&gt;&lt;font style=&quot;font-size: 18px&quot; face=&quot;Times New Roman&quot;&gt;&lt;font style=&quot;font-size: 18px&quot; face=&quot;Times New Roman&quot;&gt;&lt;font style=&quot;font-size: 18px&quot; face=&quot;Times New Roman&quot;&gt;NeurIPS&lt;/font&gt;&lt;/font&gt;&lt;/font&gt;]&lt;br&gt;&lt;/font&gt;&lt;/div&gt;" style="rounded=1;whiteSpace=wrap;html=1;fillColor=#FFFFFF;strokeColor=none;" parent="1" vertex="1">
          <mxGeometry x="1810" y="900" width="210" height="20" as="geometry" />
        </mxCell>
        <mxCell id="8ZuE6UymOt83okC72A94-96" value="&lt;div&gt;&lt;font style=&quot;font-size: 18px&quot; face=&quot;Times New Roman&quot;&gt;&quot;The Convex Relaxation Barrier, Revisited: Tightened Single-Neuron Relaxations for Neural Network Verification.&quot;&lt;/font&gt;&lt;br&gt;&lt;/div&gt;" style="rounded=1;whiteSpace=wrap;html=1;fillColor=none;strokeColor=none;" parent="1" vertex="1">
          <mxGeometry x="1810" y="930" width="210" height="100" as="geometry" />
        </mxCell>
        <mxCell id="8ZuE6UymOt83okC72A94-97" value="&lt;div&gt;&lt;font style=&quot;font-size: 18px&quot; face=&quot;Times New Roman&quot;&gt;Christian Tjandraatmadja et al.&lt;/font&gt;&lt;/div&gt;&lt;div&gt;&lt;font style=&quot;font-size: 18px&quot; face=&quot;Times New Roman&quot;&gt;(Google Research)&lt;br&gt;&lt;/font&gt;&lt;/div&gt;" style="rounded=1;whiteSpace=wrap;html=1;fillColor=none;strokeColor=none;" parent="1" vertex="1">
          <mxGeometry x="1810" y="1050" width="210" height="50" as="geometry" />
        </mxCell>
        <mxCell id="8ZuE6UymOt83okC72A94-98" style="edgeStyle=orthogonalEdgeStyle;rounded=1;orthogonalLoop=1;jettySize=auto;html=1;strokeColor=#4D4D4D;strokeWidth=3;exitX=0.5;exitY=1;exitDx=0;exitDy=0;entryX=0.5;entryY=0;entryDx=0;entryDy=0;" parent="1" source="8ZuE6UymOt83okC72A94-78" target="8ZuE6UymOt83okC72A94-93" edge="1">
          <mxGeometry relative="1" as="geometry">
            <mxPoint x="1085" y="280" as="sourcePoint" />
            <mxPoint x="1880" y="860" as="targetPoint" />
          </mxGeometry>
        </mxCell>
        <mxCell id="8ZuE6UymOt83okC72A94-99" value="" style="rounded=1;whiteSpace=wrap;html=1;fillColor=#B3B3B3;arcSize=4;" parent="1" vertex="1">
          <mxGeometry x="2080" y="330" width="230" height="220" as="geometry" />
        </mxCell>
        <mxCell id="8ZuE6UymOt83okC72A94-100" value="" style="rounded=1;whiteSpace=wrap;html=1;fillColor=none;dashed=1;arcSize=2;" parent="1" vertex="1">
          <mxGeometry x="2090" y="340" width="210" height="140" as="geometry" />
        </mxCell>
        <mxCell id="8ZuE6UymOt83okC72A94-101" value="&lt;div&gt;&lt;font style=&quot;font-size: 18px&quot; face=&quot;Times New Roman&quot;&gt;Fast-Lin [ICML]&lt;br&gt;&lt;/font&gt;&lt;/div&gt;" style="rounded=1;whiteSpace=wrap;html=1;fillColor=#FFFFFF;strokeColor=none;" parent="1" vertex="1">
          <mxGeometry x="2090" y="340" width="210" height="20" as="geometry" />
        </mxCell>
        <mxCell id="8ZuE6UymOt83okC72A94-102" value="&lt;div&gt;&lt;font style=&quot;font-size: 18px&quot; face=&quot;Times New Roman&quot;&gt;&quot;Towards Fast Computation of Certified Robustness for ReLU Networks.&quot;&lt;/font&gt;&lt;br&gt;&lt;/div&gt;" style="rounded=1;whiteSpace=wrap;html=1;fillColor=none;strokeColor=none;" parent="1" vertex="1">
          <mxGeometry x="2090" y="370" width="210" height="100" as="geometry" />
        </mxCell>
        <mxCell id="8ZuE6UymOt83okC72A94-103" value="&lt;div&gt;&lt;font style=&quot;font-size: 18px&quot; face=&quot;Times New Roman&quot;&gt;Lily Weng et al.&lt;/font&gt;&lt;/div&gt;&lt;div&gt;&lt;font style=&quot;font-size: 18px&quot; face=&quot;Times New Roman&quot;&gt;(MIT)&lt;br&gt;&lt;/font&gt;&lt;/div&gt;" style="rounded=1;whiteSpace=wrap;html=1;fillColor=none;strokeColor=none;" parent="1" vertex="1">
          <mxGeometry x="2090" y="490" width="210" height="50" as="geometry" />
        </mxCell>
        <mxCell id="8ZuE6UymOt83okC72A94-104" value="" style="rounded=1;whiteSpace=wrap;html=1;fillColor=#B3B3B3;arcSize=4;" parent="1" vertex="1">
          <mxGeometry x="2360" y="330" width="230" height="220" as="geometry" />
        </mxCell>
        <mxCell id="8ZuE6UymOt83okC72A94-105" value="" style="rounded=1;whiteSpace=wrap;html=1;fillColor=none;dashed=1;arcSize=2;" parent="1" vertex="1">
          <mxGeometry x="2370" y="340" width="210" height="140" as="geometry" />
        </mxCell>
        <mxCell id="8ZuE6UymOt83okC72A94-106" value="&lt;div&gt;&lt;font style=&quot;font-size: 18px&quot; face=&quot;Times New Roman&quot;&gt;CROWN [&lt;/font&gt;&lt;font style=&quot;font-size: 18px&quot; face=&quot;Times New Roman&quot;&gt;&lt;font style=&quot;font-size: 18px&quot; face=&quot;Times New Roman&quot;&gt;&lt;font style=&quot;font-size: 18px&quot; face=&quot;Times New Roman&quot;&gt;&lt;font style=&quot;font-size: 18px&quot; face=&quot;Times New Roman&quot;&gt;NeurIPS&lt;/font&gt;&lt;/font&gt;&lt;/font&gt;]&lt;br&gt;&lt;/font&gt;&lt;/div&gt;" style="rounded=1;whiteSpace=wrap;html=1;fillColor=#FFFFFF;strokeColor=none;" parent="1" vertex="1">
          <mxGeometry x="2370" y="340" width="210" height="20" as="geometry" />
        </mxCell>
        <mxCell id="8ZuE6UymOt83okC72A94-107" value="&lt;div&gt;&lt;font style=&quot;font-size: 18px&quot; face=&quot;Times New Roman&quot;&gt;&quot;Efficient Neural Network Robustness Certification with General Activation Functions.&quot;&lt;/font&gt;&lt;br&gt;&lt;/div&gt;" style="rounded=1;whiteSpace=wrap;html=1;fillColor=none;strokeColor=none;" parent="1" vertex="1">
          <mxGeometry x="2370" y="370" width="210" height="100" as="geometry" />
        </mxCell>
        <mxCell id="8ZuE6UymOt83okC72A94-108" value="&lt;div&gt;&lt;font style=&quot;font-size: 18px&quot; face=&quot;Times New Roman&quot;&gt;Huan Zhang et al.&lt;/font&gt;&lt;/div&gt;&lt;div&gt;&lt;font style=&quot;font-size: 18px&quot; face=&quot;Times New Roman&quot;&gt;(University of California, Los Angeles)&lt;br&gt;&lt;/font&gt;&lt;/div&gt;" style="rounded=1;whiteSpace=wrap;html=1;fillColor=none;strokeColor=none;" parent="1" vertex="1">
          <mxGeometry x="2370" y="490" width="210" height="50" as="geometry" />
        </mxCell>
        <mxCell id="8ZuE6UymOt83okC72A94-109" value="" style="rounded=1;whiteSpace=wrap;html=1;fillColor=#B3B3B3;arcSize=4;" parent="1" vertex="1">
          <mxGeometry x="2360" y="610" width="230" height="220" as="geometry" />
        </mxCell>
        <mxCell id="8ZuE6UymOt83okC72A94-110" value="" style="rounded=1;whiteSpace=wrap;html=1;fillColor=none;dashed=1;arcSize=2;" parent="1" vertex="1">
          <mxGeometry x="2370" y="620" width="210" height="140" as="geometry" />
        </mxCell>
        <mxCell id="8ZuE6UymOt83okC72A94-111" value="&lt;div&gt;&lt;font style=&quot;font-size: 18px&quot; face=&quot;Times New Roman&quot;&gt;DeepPoly&lt;br&gt;&lt;/font&gt;&lt;/div&gt;" style="rounded=1;whiteSpace=wrap;html=1;fillColor=#FFFFFF;strokeColor=none;" parent="1" vertex="1">
          <mxGeometry x="2370" y="620" width="210" height="20" as="geometry" />
        </mxCell>
        <mxCell id="8ZuE6UymOt83okC72A94-112" value="&lt;div&gt;&lt;font style=&quot;font-size: 18px&quot; face=&quot;Times New Roman&quot;&gt;&quot;An Abstract Domain for Certifying Neural Networks.&quot;&lt;/font&gt;&lt;br&gt;&lt;/div&gt;" style="rounded=1;whiteSpace=wrap;html=1;fillColor=none;strokeColor=none;" parent="1" vertex="1">
          <mxGeometry x="2370" y="650" width="210" height="100" as="geometry" />
        </mxCell>
        <mxCell id="8ZuE6UymOt83okC72A94-113" value="&lt;div&gt;&lt;font style=&quot;font-size: 18px&quot; face=&quot;Times New Roman&quot;&gt;Gagandeep Singh et al.&lt;/font&gt;&lt;/div&gt;&lt;div&gt;&lt;font style=&quot;font-size: 18px&quot; face=&quot;Times New Roman&quot;&gt;(ETH Zurich)&lt;br&gt;&lt;/font&gt;&lt;/div&gt;" style="rounded=1;whiteSpace=wrap;html=1;fillColor=none;strokeColor=none;" parent="1" vertex="1">
          <mxGeometry x="2370" y="770" width="210" height="50" as="geometry" />
        </mxCell>
        <mxCell id="8ZuE6UymOt83okC72A94-114" value="" style="rounded=1;whiteSpace=wrap;html=1;fillColor=#B3B3B3;arcSize=4;" parent="1" vertex="1">
          <mxGeometry x="2640" y="330" width="230" height="220" as="geometry" />
        </mxCell>
        <mxCell id="8ZuE6UymOt83okC72A94-115" value="" style="rounded=1;whiteSpace=wrap;html=1;fillColor=none;dashed=1;arcSize=2;" parent="1" vertex="1">
          <mxGeometry x="2650" y="340" width="210" height="140" as="geometry" />
        </mxCell>
        <mxCell id="8ZuE6UymOt83okC72A94-116" value="&lt;div&gt;&lt;font style=&quot;font-size: 18px&quot; face=&quot;Times New Roman&quot;&gt;AI2 [S&amp;amp;P]&lt;br&gt;&lt;/font&gt;&lt;/div&gt;" style="rounded=1;whiteSpace=wrap;html=1;fillColor=#FFFFFF;strokeColor=none;" parent="1" vertex="1">
          <mxGeometry x="2650" y="340" width="210" height="20" as="geometry" />
        </mxCell>
        <mxCell id="8ZuE6UymOt83okC72A94-117" value="&lt;div&gt;&lt;font style=&quot;font-size: 18px&quot; face=&quot;Times New Roman&quot;&gt;&quot;AI2: Safety and Robustness Certification of Neural Networks with Abstract Interpretation.&quot;&lt;/font&gt;&lt;br&gt;&lt;/div&gt;" style="rounded=1;whiteSpace=wrap;html=1;fillColor=none;strokeColor=none;" parent="1" vertex="1">
          <mxGeometry x="2650" y="370" width="210" height="100" as="geometry" />
        </mxCell>
        <mxCell id="8ZuE6UymOt83okC72A94-118" value="&lt;div&gt;&lt;font style=&quot;font-size: 18px&quot; face=&quot;Times New Roman&quot;&gt;Timon Gehr et al.&lt;/font&gt;&lt;/div&gt;&lt;div&gt;&lt;font style=&quot;font-size: 18px&quot; face=&quot;Times New Roman&quot;&gt;(&lt;/font&gt;&lt;font style=&quot;font-size: 18px&quot; face=&quot;Times New Roman&quot;&gt;&lt;font style=&quot;font-size: 18px&quot; face=&quot;Times New Roman&quot;&gt;ETH Zurich&lt;/font&gt;)&lt;br&gt;&lt;/font&gt;&lt;/div&gt;" style="rounded=1;whiteSpace=wrap;html=1;fillColor=none;strokeColor=none;" parent="1" vertex="1">
          <mxGeometry x="2650" y="490" width="210" height="50" as="geometry" />
        </mxCell>
        <mxCell id="8ZuE6UymOt83okC72A94-119" value="" style="rounded=1;whiteSpace=wrap;html=1;fillColor=#B3B3B3;arcSize=4;" parent="1" vertex="1">
          <mxGeometry x="2920" y="330" width="230" height="220" as="geometry" />
        </mxCell>
        <mxCell id="8ZuE6UymOt83okC72A94-120" value="" style="rounded=1;whiteSpace=wrap;html=1;fillColor=none;dashed=1;arcSize=2;" parent="1" vertex="1">
          <mxGeometry x="2930" y="340" width="210" height="140" as="geometry" />
        </mxCell>
        <mxCell id="8ZuE6UymOt83okC72A94-121" value="&lt;div&gt;&lt;font style=&quot;font-size: 18px&quot; face=&quot;Times New Roman&quot;&gt;DiffAI [ICML]&lt;br&gt;&lt;/font&gt;&lt;/div&gt;" style="rounded=1;whiteSpace=wrap;html=1;fillColor=#FFFFFF;strokeColor=none;" parent="1" vertex="1">
          <mxGeometry x="2930" y="340" width="210" height="20" as="geometry" />
        </mxCell>
        <mxCell id="8ZuE6UymOt83okC72A94-122" value="&lt;div&gt;&lt;font style=&quot;font-size: 18px&quot; face=&quot;Times New Roman&quot;&gt;&quot;Differentiable Abstract Interpretation for Provably Robust Neural Networks.&quot;&lt;/font&gt;&lt;br&gt;&lt;/div&gt;" style="rounded=1;whiteSpace=wrap;html=1;fillColor=none;strokeColor=none;" parent="1" vertex="1">
          <mxGeometry x="2930" y="370" width="210" height="100" as="geometry" />
        </mxCell>
        <mxCell id="8ZuE6UymOt83okC72A94-123" value="&lt;div&gt;&lt;font style=&quot;font-size: 18px&quot; face=&quot;Times New Roman&quot;&gt;Matthew Mirman et al.&lt;/font&gt;&lt;/div&gt;&lt;div&gt;&lt;font style=&quot;font-size: 18px&quot; face=&quot;Times New Roman&quot;&gt;(&lt;/font&gt;&lt;font style=&quot;font-size: 18px&quot; face=&quot;Times New Roman&quot;&gt;&lt;font style=&quot;font-size: 18px&quot; face=&quot;Times New Roman&quot;&gt;&lt;font style=&quot;font-size: 18px&quot; face=&quot;Times New Roman&quot;&gt;ETH Zurich&lt;/font&gt;&lt;/font&gt;)&lt;br&gt;&lt;/font&gt;&lt;/div&gt;" style="rounded=1;whiteSpace=wrap;html=1;fillColor=none;strokeColor=none;" parent="1" vertex="1">
          <mxGeometry x="2930" y="490" width="210" height="50" as="geometry" />
        </mxCell>
        <mxCell id="8ZuE6UymOt83okC72A94-124" style="edgeStyle=orthogonalEdgeStyle;rounded=1;orthogonalLoop=1;jettySize=auto;html=1;strokeColor=#4D4D4D;strokeWidth=3;exitX=1;exitY=0.5;exitDx=0;exitDy=0;entryX=0;entryY=0.5;entryDx=0;entryDy=0;" parent="1" source="8ZuE6UymOt83okC72A94-114" target="8ZuE6UymOt83okC72A94-119" edge="1">
          <mxGeometry relative="1" as="geometry">
            <mxPoint x="1925" y="560" as="sourcePoint" />
            <mxPoint x="1925" y="900" as="targetPoint" />
          </mxGeometry>
        </mxCell>
        <mxCell id="8ZuE6UymOt83okC72A94-125" style="edgeStyle=orthogonalEdgeStyle;rounded=1;orthogonalLoop=1;jettySize=auto;html=1;strokeColor=#4D4D4D;strokeWidth=3;exitX=0.5;exitY=1;exitDx=0;exitDy=0;entryX=0.5;entryY=0;entryDx=0;entryDy=0;" parent="1" source="8ZuE6UymOt83okC72A94-114" target="8ZuE6UymOt83okC72A94-109" edge="1">
          <mxGeometry relative="1" as="geometry">
            <mxPoint x="2880" y="450" as="sourcePoint" />
            <mxPoint x="2930" y="450" as="targetPoint" />
          </mxGeometry>
        </mxCell>
      </root>
    </mxGraphModel>
  </diagram>
</mxfile>
